M48
INCH
T01C0.0200
T02C0.0300
T03C0.0600
T04C0.0400
T05C0.1259
%
T01
X+025750Y+013000
X+025750Y+019000
X+018897Y+014566
X+030708Y+016000
X+029250Y+011023
X+014278Y+022440
X+022440Y+007874
T02
X+028878Y+024828
X+027878Y+024828
X+026878Y+024828
X+025878Y+024828
X+024878Y+024828
X+023878Y+024828
X+022878Y+024828
X+021878Y+024828
X+020278Y+024828
X+019278Y+024828
X+018278Y+024828
X+017278Y+024828
X+016278Y+024828
X+015278Y+024828
X+014278Y+024828
X+013278Y+024828
X+012278Y+024828
X+011278Y+024828
X+028878Y+005828
X+027878Y+005828
X+026878Y+005828
X+025878Y+005828
X+024878Y+005828
X+023878Y+005828
X+021878Y+005828
X+020878Y+005828
X+019878Y+005828
X+018878Y+005828
X+017878Y+005828
X+016878Y+005828
X+015878Y+005828
X+014878Y+005828
X+023750Y+015000
X+023750Y+014000
X+023750Y+013000
X+026750Y+013000
X+026750Y+014000
X+026750Y+015000
X+026750Y+016000
T03
X+009878Y+024828
X+029878Y+018828
X+029878Y+007828
X+009378Y+005828
X+038378Y+007324
X+038378Y+005828
X+038378Y+022328
X+038378Y+020832
X+038378Y+016328
X+038378Y+014832
T04
X+023750Y+016000
T05
X+001574Y+001574
X+040551Y+029921
M30
